<svg width="51" height="53" viewBox="0 0 51 53" fill="none" xmlns="http://www.w3.org/2000/svg">
<path d="M33.4688 3.93512C31.2289 3.9346 29.02 4.46682 27.0192 5.48914C25.0184 6.51146 23.2813 7.99545 21.947 9.82219C20.6127 11.6489 19.7184 13.7676 19.3357 16.0085C18.9531 18.2493 19.0927 20.5501 19.7434 22.7263L3.1875 39.5367V49.2462H12.75L29.3059 32.4358C31.2788 33.0439 33.3576 33.2129 35.4007 32.9314C37.4437 32.6499 39.403 31.9245 41.145 30.8047C42.887 29.6848 44.3708 28.1967 45.4952 26.4419C46.6196 24.6872 47.3582 22.7069 47.6606 20.636C47.9631 18.5652 47.8223 16.4525 47.2479 14.4419C46.6735 12.4313 45.679 10.57 44.3321 8.98498C42.9852 7.39994 41.3176 6.12837 39.4429 5.25693C37.5682 4.38548 35.5305 3.93463 33.4688 3.93512ZM33.4688 29.8272C32.3715 29.8266 31.2803 29.6619 30.2303 29.3385L28.4022 28.7753L27.0523 30.146L21.9826 35.2936L19.7848 33.0637L17.5312 35.3519L19.729 37.5835L17.2013 40.15L15.0036 37.9184L12.75 40.2066L14.9478 42.4382L11.4304 46.0097H6.375V40.8766L21.9969 25.0145L23.3484 23.6438L22.7938 21.7877C22.1126 19.5076 22.1569 17.0674 22.9203 14.8143C23.6837 12.5611 25.1274 10.6098 27.046 9.23785C28.9646 7.8659 31.2604 7.14317 33.6069 7.17248C35.9534 7.2018 38.231 7.98165 40.1158 9.40112C42.0006 10.8206 43.3966 12.8074 44.1052 15.0789C44.8138 17.3504 44.7989 19.791 44.0626 22.0534C43.3264 24.3158 41.9063 26.2849 40.0043 27.6805C38.1024 29.0762 35.8154 29.8274 33.4688 29.8272Z" fill="#111827"/>
<path d="M35.0625 20.1177C36.8229 20.1177 38.25 18.6686 38.25 16.8812C38.25 15.0937 36.8229 13.6447 35.0625 13.6447C33.3021 13.6447 31.875 15.0937 31.875 16.8812C31.875 18.6686 33.3021 20.1177 35.0625 20.1177Z" fill="#111827"/>
</svg>
