<svg width="65" height="64" viewBox="0 0 65 64" fill="none" xmlns="http://www.w3.org/2000/svg">
<rect x="0.858398" y="0.692993" width="63.1732" height="63.1732" rx="31.5866" fill="white"/>
<path d="M44.1643 18.4882C45.5484 18.4882 46.8757 19.0829 47.8544 20.1415C48.833 21.2001 49.3829 22.6358 49.3829 24.1329V42.1959C49.3829 43.6929 48.833 45.1287 47.8544 46.1873C46.8757 47.2458 45.5484 47.8406 44.1643 47.8406H21.2029C19.8189 47.8406 18.4915 47.2458 17.5128 46.1873C16.5342 45.1287 15.9844 43.6929 15.9844 42.1959V24.1329C15.9844 22.6358 16.5342 21.2001 17.5128 20.1415C18.4915 19.0829 19.8189 18.4882 21.2029 18.4882H44.1643ZM47.2955 27.4317L33.2138 36.3954C33.0807 36.4799 32.9319 36.5315 32.7781 36.5463C32.6243 36.5612 32.4694 36.5389 32.3246 36.4812L32.1534 36.3954L18.0718 27.4362V42.1959C18.0718 43.0941 18.4017 43.9556 18.9889 44.5907C19.5761 45.2259 20.3725 45.5827 21.2029 45.5827H44.1643C44.9948 45.5827 45.7912 45.2259 46.3784 44.5907C46.9656 43.9556 47.2955 43.0941 47.2955 42.1959V27.4317ZM44.1643 20.7461H21.2029C20.3725 20.7461 19.5761 21.1029 18.9889 21.7381C18.4017 22.3732 18.0718 23.2347 18.0718 24.1329V24.8148L32.6836 34.1127L47.2955 24.8103V24.1329C47.2955 23.2347 46.9656 22.3732 46.3784 21.7381C45.7912 21.1029 44.9948 20.7461 44.1643 20.7461Z" fill="#111827"/>
</svg>
