<svg width="65" height="64" viewBox="0 0 65 64" fill="none" xmlns="http://www.w3.org/2000/svg">
<rect x="0.858398" y="0.157471" width="63.1732" height="63.1732" rx="31.5866" fill="white"/>
<path d="M50.7448 48.849C50.6208 49.0711 50.4424 49.2555 50.2276 49.3837C50.0128 49.5119 49.7691 49.5794 49.5211 49.5793H15.6159C15.368 49.5791 15.1246 49.5114 14.91 49.3831C14.6954 49.2548 14.5173 49.0704 14.3935 48.8484C14.2697 48.6264 14.2045 48.3746 14.2046 48.1183C14.2047 47.8621 14.2699 47.6103 14.3939 47.3884C17.0833 42.5812 21.2279 39.1341 26.0647 37.5C23.6722 36.0275 21.8134 33.7837 20.7737 31.1131C19.734 28.4426 19.5709 25.4931 20.3095 22.7175C21.0481 19.9419 22.6475 17.4937 24.8621 15.7488C27.0768 14.004 29.7841 13.059 32.5685 13.059C35.3528 13.059 38.0602 14.004 40.2748 15.7488C42.4894 17.4937 44.0888 19.9419 44.8274 22.7175C45.566 25.4931 45.4029 28.4426 44.3633 31.1131C43.3236 33.7837 41.4647 36.0275 39.0723 37.5C43.909 39.1341 48.0536 42.5812 50.7431 47.3884C50.8673 47.6103 50.9329 47.8621 50.9332 48.1185C50.9335 48.3749 50.8685 48.6268 50.7448 48.849Z" fill="#111827"/>
</svg>
