<svg width="50" height="50" viewBox="0 0 50 50" fill="none" xmlns="http://www.w3.org/2000/svg">
<path d="M49.7435 48.0438C49.5747 48.3402 49.3319 48.5863 49.0394 48.7574C48.747 48.9285 48.4153 49.0185 48.0776 49.0184H1.92121C1.58379 49.0181 1.2524 48.9278 0.960311 48.7565C0.668224 48.5853 0.425726 48.3392 0.257165 48.0429C0.0886035 47.7467 -8.6563e-05 47.4107 6.33972e-08 47.0687C8.66898e-05 46.7267 0.0889468 46.3907 0.257658 46.0945C3.91892 39.6791 9.56105 35.0788 16.1455 32.8981C12.8886 30.9329 10.3581 27.9384 8.94272 24.3745C7.52735 20.8106 7.30537 16.8743 8.31084 13.1701C9.31632 9.46591 11.4937 6.19867 14.5085 3.87012C17.5233 1.54157 21.209 0.280457 24.9994 0.280457C28.7898 0.280457 32.4755 1.54157 35.4903 3.87012C38.5051 6.19867 40.6825 9.46591 41.688 13.1701C42.6934 16.8743 42.4714 20.8106 41.0561 24.3745C39.6407 27.9384 37.1102 30.9329 33.8533 32.8981C40.4377 35.0788 46.0799 39.6791 49.7411 46.0945C49.9103 46.3907 49.9996 46.7267 50 47.0688C50.0004 47.411 49.912 47.7473 49.7435 48.0438Z" fill="#111827"/>
</svg>
